# xmcd
#
# Track frame offsets:
#	150
#	20223
#	39704
#	66271
#	91951
#	108402
#	131275
#	152421
#	168563
#	193627
#
# Disc length: 2853 seconds
#
# Revision: 0
# Processed by: cddbd v1.5.2PL0 Copyright (c) Steve Scherf et al.
# Submitted via: dBpowerAMP V4.0
#
DISCID=820b230a
DTITLE=Joy Askew - The Pirate of Eel Pie
DYEAR=2008
DGENRE=Folk
TTITLE0=Hip these Days
TTITLE1=A change is gonna Come
TTITLE2=Jimmy's Gone Now
TTITLE3=Walk Underwaterfalls
TTITLE4=War(Why Don't you Go Home)
TTITLE5=The Pirate of Eel Pie
TTITLE6=Between a House and A Road
TTITLE7=London Rain
TTITLE8=Jack Kerouac
TTITLE9=Poor Man's Greed
EXTD=
EXTT0=
EXTT1=
EXTT2=
EXTT3=
EXTT4=
EXTT5=
EXTT6=
EXTT7=
EXTT8=
EXTT9=
PLAYORDER=
